<?xml version="1.0" encoding="utf-8"?>
<!-- Generator: Adobe Illustrator 27.5.0, SVG Export Plug-In . SVG Version: 6.00 Build 0)  -->
<svg version="1.1" id="Calque_1" xmlns="http://www.w3.org/2000/svg" xmlns:xlink="http://www.w3.org/1999/xlink" x="0px" y="0px"
	 viewBox="0 0 600 600" style="enable-background:new 0 0 600 600;" xml:space="preserve">
<style type="text/css">
	.st0{fill:#FFFFFF;}
</style>
<g>
	<path class="st0" d="M387.3,503.1c-0.4,0-0.7,0-1.1,0c-0.8-5.1-1.9-10.2-2.3-15.3c-1.3-15.9-2.4-31.8-3.4-47.7
		c-0.2-2.8,2.6-5.3,4.2-7.3c2.1-2.7,4.2-5.5,6.3-8.2c5.1-6.5,10.8-12.8,14.7-20.1c3.1-5.8,6-11.7,8.8-17.7
		c8.6-18.3,16.4-37.2,21.2-56.9c0-0.1,0-0.2,0.1-0.3c1.1-5,2.1-10.1,3-15.2c0.4-1.9,1.1-3.1,3.1-3.6c1.2-0.3,2.3-1.1,3.7-1.8
		c0,0,6-4.7,12-15c4.4-7.6,7.7-16.5,9.3-25c2.3-11.9,2.6-24.1,4.6-36.1c1.8-10.8,2.7-21.8,2.6-32.8c0-0.1,0-0.2,0-0.3
		c-0.1-3.2-0.2-6.5-0.3-9.7c-0.7-13-2.5-20.9-2.5-20.9c-0.2-0.9-0.5-1.7-0.7-2.5c-2.7-13.8-7.3-26.9-13.1-39.7
		c-7.4-16.3-17.1-31.2-29-44.6c-30.7-34.6-69-55.3-114.7-61.6c-32.9-4.5-64.9-0.5-95.5,12.4c-50.2,21.2-84.7,57.7-103.8,108.7
		c-5.1,13.5-8.2,27.6-9.7,42c-2,18.8-1.4,37.4,2.2,55.9c0.8,4,2.2,8,2.2,12c-0.3,13.7,2.6,26.6,9.1,38.7
		c4.5,8.3,10.1,15.7,18.8,20.1c0.7,0.3,1.2,1.4,1.3,2.2c1.8,8.2,3.1,16.5,5.2,24.6c10.7,40.7,28.9,77.3,59.7,106.9
		c0.7,0.7,1.3,2.1,1.2,3.1c-0.2,7.5-0.5,14.9-1.1,22.3c-1.6,21-5.5,41.5-11.9,61.5c-3.8,11.9-8.1,23.6-15.7,33.8
		c-1.8,2.4-4.4,4.5-7.1,5.8c-3,1.4-5,3.4-4.4,6.1c0.6,3.1,3.4,4.7,6.9,4.1c4.1-0.8,7.6-2.9,10-6.3c4.1-5.8,8.4-11.7,11.5-18.1
		c12.2-26,17.9-53.8,20.8-82.2c0.7-6.5,1-13.1,1.5-20c0.8,0.5,1.4,0.9,1.9,1.3c7.3,4.7,14.4,9.7,21.9,13.9
		c16.4,9.2,33.7,15.4,52.9,14.6c2.1-0.1,3.1,0.6,4,2.5c5.7,12,13.8,22,25.3,29.1c15.6,9.6,32,14.3,50.4,10.6
		c2.8-0.6,5.6-1.3,8.5-1.9c0.2,0.5,0.3,0.8,0.4,1.2c3.4,10.7,6.4,21.6,10.4,32.1c2.4,6.2,6.3,12,10,17.6c2.2,3.3,5.7,5.4,9.8,5.9
		c3,0.3,5.4-1.4,6-4.2c0.5-2.4-0.9-5.2-3.3-5.7c-3.1-0.6-4.8-2.6-6.4-5c-5.3-7.7-8.5-16.3-11.3-25.2c-2.1-6.5-3.8-13.2-5.7-19.7
		c15.9-5.9,31.3-6.3,46.7,0.1c11.7,4.9,22.2,11.7,32.2,19.4c5.4,4.1,10.5,8.5,15.9,12.8c4-4.5,7.8-8.8,11.9-13.4
		c-15.2-13.2-30.9-25.5-49.3-33.8c-10.4-4.7-21.6-7.8-33.1-7.8c-4.7,0-9.5,0.3-14.1,1c-2.4,0.4-4.7,0.9-7.1,1.6
		C391.1,501.8,389.2,502.9,387.3,503.1z M116,231.3c-3.1-20-2.8-39.6,0.9-59.1c7.3-38.1,25.3-70.5,53.9-96.7
		c57.5-52.9,140.9-59.9,204.8-23.2c69.5,40,97.2,115.7,86.2,178.9c-10.5-5.6-18.2-6.6-28.5,2.1c-4.4-10.9-7-22.2-8.5-33.7
		c-1.1-8.2-1.7-16.5-2.1-24.8c-0.2-3.5,1.2-7.1,1.2-10.7c0-3.4-0.3-6.9-1.2-10.2c-2.6-9.6-8.9-16.6-16.8-22.4
		c-11.4-8.4-24.4-13.4-37.7-18c-23.7-8.1-48.2-11.7-73-12.8c-18-0.8-36-1.1-54-1c-12.6,0.1-25.4,0.8-37.6,4.5
		c-20.7,6.2-34.3,20.1-41.9,39.9c-2.6,6.8-4.1,14.1-5,21.4c-0.6,4.8,0.3,9.8,1.1,14.7c2.2,13.8,0.4,26.9-5.8,39.4
		c-3.1,6.2-6.7,12.2-10.3,18.7c-3.3-4.4-5.6-9.5-11.1-10.7C125.4,226.3,120.6,227.8,116,231.3z M167.5,175.3
		c-2.1-11.6,1-22.4,6.1-32.7c8.9-18.2,23.7-28.3,43.7-30.7c19-2.3,38.1-2.8,57.3-1.9c12.8,0.6,25.7,1.3,38.5,2.5
		c26.4,2.5,51.9,8.8,75.8,20.6c7.1,3.5,13.7,7.8,18.7,14c4.3,5.3,6.2,11,5.6,18.3c-0.8,9.3-0.4,18.8,0.5,28.1
		c1.4,15.8,4.7,31.3,11.1,45.9c1.3,3.1,1.1,5.3-0.6,8.1c-11.7,18.8-24.5,36.7-40.5,52.2c-6.8,6.6-14.2,12.6-22.7,17
		c-0.9,0.5-1.8,0.9-2.6,1.3c-6.2-6.4-12.4-12.2-17.8-18.6c-8.4-10-12.7-21.8-13.9-34.8c-1.6-17.7-17.6-33.4-37.6-32.6
		c-15.7,0.6-28.3,9.5-33.5,24.3c-1.7,4.8-2.1,10.1-3.3,15.1c-3.1,13.5-9.7,24.9-20.1,34c-3.8,3.3-7.3,6.9-11.5,10.9
		c-3.9-2.6-8.5-5.4-12.8-8.6c-15.3-11.3-28.7-24.6-41.5-38.6c-6.4-6.9-12.5-14.1-18.7-21c3.5-5.9,6.8-11.4,10.1-17.1
		C167.8,213.7,171.1,195.1,167.5,175.3z M267.5,470.8c-30.4-10.3-55.1-28.5-74.8-53.7c-21.7-27.9-34.6-59.8-42-94.1
		c-1.2-5.5-2-11-2.8-16.5c-0.4-2.3-1.5-4-3.7-4.5c-5.2-1.2-8.8-4.5-11.8-8.5C122.4,280,118,264.7,120,247.8c0.3-2.6,1.2-5.3,2.4-7.6
		c1.5-3.1,3.9-3.1,5.9-0.5c17.7,22.3,36.6,43.7,57.8,62.9c9.1,8.2,18.6,15.7,29.5,21.8c-30.8,52.4,5.9,114.1,66.8,118.6
		c2.4,10.1,4.8,20.2,7.3,30.6C282.4,473.7,274.8,473.3,267.5,470.8z M288.4,390.3c-8.7-0.1-15.8-7.6-15.6-16.4
		c0.2-9.1,7.5-16.2,16.6-16c8.5,0.1,16,7.6,15.9,16C305.1,383.2,297.7,390.4,288.4,390.3z M298,403.3c0-0.7,1.1-1.7,2-2.1
		c10.2-4.7,16.3-12.5,17.8-23.6c2-14.6-8.8-29.6-23.1-32c-15.9-2.8-30.9,6.9-34.3,22c-3.1,14.2,3.9,27.7,17.3,33.6
		c0.8,0.4,1.8,1.4,1.8,2.2c0.6,8.5,1,16.9,1.4,25.4c0,0.3-0.1,0.5-0.3,1.5c-4.9-1.1-9.8-1.9-14.5-3.4c-20.4-6.6-35.6-19.2-44.1-39.2
		c-10.3-24.3-3.8-53.1,16.2-70.5c14.2-12.3,23.2-27.3,27-45.5c0.4-1.8,0.5-3.7,0.7-5.5c1.2-12.1,11.9-21.5,24.1-21.2
		c12.6,0.3,22.4,10,23.6,22.1c1.8,19.1,9.3,35.8,23.9,48.4c29.2,25.1,30.2,69,1.8,95.3c-10.8,10-23.4,16-37.8,18.5
		c-0.7,0.1-1.5,0.1-2.7,0.2C298.6,420.6,298.3,411.9,298,403.3z M313.3,480.7c21-7.2,39.8-18.1,56.3-32.5c2,19.3,4,38.6,6,58.2
		C350.6,516.9,321.1,499.6,313.3,480.7z M379.3,423.6c-18.7,21.8-41.5,37.5-68.6,47c-0.6,0.2-1.2,0.3-2.6,0.7
		c-2.5-9.7-4.9-19-7.3-28.3c6.1-1.6,11.7-2.7,16.9-4.6c25.7-9.2,43.9-26.2,52.2-52.5c6.2-19.7,4.1-38.9-5.4-57.2
		c-0.3-0.5-0.5-1-0.8-1.5c-0.1-0.2-0.1-0.4-0.2-0.6c0.1-0.2,0.3-0.5,0.5-0.6c16-8.3,28.5-20.6,40-34.1
		c11.4-13.4,21.3-27.8,30.3-42.9c2.1-3.5,5.2-6.5,8.1-9.5c4.1-4.3,14.1-2.7,15.3,5.3c1.2,7.9,0.6,15.6-1.2,23.3
		c-2.4,10-6.4,19.2-12.2,27.6c-2.4,3.5-5.7,5.8-10,6.4c-2.7,0.4-4.2,1.9-4.7,4.7c-1.9,9.9-3.3,19.8-6,29.5
		C414.8,368.5,401.1,398.2,379.3,423.6z"/>
</g>
</svg>
