<?xml version="1.0" encoding="utf-8"?>
<!-- Generator: Adobe Illustrator 27.5.0, SVG Export Plug-In . SVG Version: 6.00 Build 0)  -->
<svg version="1.1" id="Calque_1" xmlns="http://www.w3.org/2000/svg" xmlns:xlink="http://www.w3.org/1999/xlink" x="0px" y="0px"
	 viewBox="0 0 600 600" style="enable-background:new 0 0 600 600;" xml:space="preserve">
<style type="text/css">
	.st0{fill:#FFFFFF;}
	.st1{fill:none;stroke:#FFFFFF;stroke-width:5;stroke-miterlimit:10;}
</style>
<g>
	<path class="st0" d="M355.9,331.8h-25.8v7.9H348l0,0.4c-2.4,6.9-7.9,10.8-16.6,10.8c-10.1,0-17.7-8.1-17.7-18.3
		c0-10.6,7.9-19,18.4-19c8,0,13.8,3.9,17,11l7.4-3.4c-4.6-9.9-13.2-15.3-24.4-15.3c-14.9,0-26.5,11.7-26.5,26.7
		c0,14.6,11.3,26,25.8,26c7.5,0,13.2-3,17.4-7.8l0.7,5.9h6.4L355.9,331.8L355.9,331.8z"/>
	<polygon class="st0" points="355.9,285.1 315.1,285.1 315.1,272.1 351.2,272.1 351.2,264.6 315.1,264.6 315.1,251.5 355.9,251.5 
		355.9,243.8 306.8,243.8 306.8,292.9 355.9,292.9 	"/>
	<polygon class="st0" points="284.5,264.1 252.1,264.1 252.1,243.8 243.8,243.8 243.8,292.9 252.1,292.9 252.1,271.9 284.5,271.9 
		284.5,292.9 292.9,292.9 292.9,243.8 284.5,243.8 	"/>
	<polygon class="st0" points="272.5,349 272.5,315.6 292.9,315.6 292.9,307.8 243.8,307.8 243.8,315.6 264.2,315.6 264.2,349 
		243.8,349 243.8,356.8 292.9,356.8 292.9,349 	"/>
	<g>
		<g>
			<g>
				<path class="st0" d="M379.4,245.8h3.2l-4.9,13.3h-3.1l-4.9-13.3h3.3l3.2,9.4L379.4,245.8z"/>
			</g>
			<g>
				<path class="st0" d="M385.4,259.1v-13.3h4.8c4,0,6.7,2.6,6.7,6.7s-2.7,6.7-6.7,6.7H385.4z M390.1,256.3c2,0,3.7-1.2,3.7-3.9
					c0-2.7-1.7-3.9-3.7-3.9h-1.7v7.7H390.1z"/>
			</g>
		</g>
	</g>
</g>
<line class="st1" x1="109.2" y1="170.8" x2="491.9" y2="170.8"/>
<line class="st1" x1="109.2" y1="235.6" x2="491.9" y2="235.6"/>
<line class="st1" x1="109.2" y1="300.5" x2="491.9" y2="300.5"/>
<line class="st1" x1="109.2" y1="365.3" x2="491.9" y2="365.3"/>
<line class="st1" x1="109.2" y1="430.2" x2="491.9" y2="430.2"/>
<line class="st1" x1="109.2" y1="430.1" x2="109.2" y2="170.8"/>
<line class="st1" x1="172.9" y1="430.1" x2="172.9" y2="170.8"/>
<line class="st1" x1="236.6" y1="430.1" x2="236.6" y2="170.8"/>
<line class="st1" x1="300.4" y1="430.1" x2="300.4" y2="170.8"/>
<line class="st1" x1="364.1" y1="430.1" x2="364.1" y2="170.8"/>
<line class="st1" x1="427.8" y1="430.1" x2="427.8" y2="170.8"/>
<line class="st1" x1="491.5" y1="430.1" x2="491.5" y2="170.8"/>
<polyline class="st1" points="109.2,170.6 32.8,111 -13.8,111 "/>
<polyline class="st1" points="491.6,170.8 567.9,111 632.6,111 "/>
<polyline class="st1" points="491.2,430 567.9,489 617.6,489 "/>
<polyline class="st1" points="109.5,430 32.8,489 -24.6,489 "/>
<line class="st1" x1="32.8" y1="111" x2="32.8" y2="489"/>
<line class="st1" x1="567.9" y1="111" x2="567.9" y2="489"/>
</svg>
